<mxfile host="65bd71144e">
    <diagram id="4oHF66P3DZ_IRrGWBBwG" name="Page-1">
        <mxGraphModel dx="592" dy="470" grid="1" gridSize="10" guides="1" tooltips="1" connect="1" arrows="1" fold="1" page="1" pageScale="1" pageWidth="850" pageHeight="1100" background="#FFFFFF" math="0" shadow="0">
            <root>
                <mxCell id="0"/>
                <mxCell id="1" parent="0"/>
                <mxCell id="115" value="" style="group;fillColor=none;strokeColor=#000000;fontColor=#000000;" parent="1" vertex="1" connectable="0">
                    <mxGeometry x="136" y="126" width="580" height="510" as="geometry"/>
                </mxCell>
                <mxCell id="2" value="XECS" style="swimlane;childLayout=stackLayout;resizeParent=1;resizeParentMax=0;startSize=20;horizontal=0;horizontalStack=1;fillColor=none;strokeColor=#000000;fontColor=#000000;" parent="115" vertex="1">
                    <mxGeometry width="580" height="510" as="geometry"/>
                </mxCell>
                <mxCell id="3" value="Customer/Admin" style="swimlane;startSize=20;fillColor=none;strokeColor=#000000;fontColor=#000000;" parent="2" vertex="1">
                    <mxGeometry x="20" width="240" height="510" as="geometry"/>
                </mxCell>
                <mxCell id="16" style="edgeStyle=none;html=1;exitX=0.5;exitY=1;exitDx=0;exitDy=0;entryX=0;entryY=0.5;entryDx=0;entryDy=0;fillColor=none;strokeColor=#000000;fontColor=#000000;" parent="3" source="7" target="15" edge="1">
                    <mxGeometry relative="1" as="geometry"/>
                </mxCell>
                <mxCell id="7" value="Start" style="ellipse;whiteSpace=wrap;html=1;rotation=-90;fillColor=none;strokeColor=#000000;fontColor=#000000;" parent="3" vertex="1">
                    <mxGeometry x="-10" y="220" width="70" height="20" as="geometry"/>
                </mxCell>
                <mxCell id="13" value="" style="endArrow=none;html=1;fillColor=none;strokeColor=#000000;fontColor=#000000;" parent="3" edge="1">
                    <mxGeometry width="50" height="50" relative="1" as="geometry">
                        <mxPoint x="70" y="390" as="sourcePoint"/>
                        <mxPoint x="70" y="60" as="targetPoint"/>
                    </mxGeometry>
                </mxCell>
                <mxCell id="15" value="" style="rhombus;whiteSpace=wrap;html=1;fillColor=none;strokeColor=#000000;fontColor=#000000;" parent="3" vertex="1">
                    <mxGeometry x="50" y="220" width="20" height="20" as="geometry"/>
                </mxCell>
                <mxCell id="30" style="edgeStyle=orthogonalEdgeStyle;html=1;exitX=0.75;exitY=1;exitDx=0;exitDy=0;entryX=0.5;entryY=0;entryDx=0;entryDy=0;endArrow=classic;endFill=1;fillColor=none;strokeColor=#000000;fontColor=#000000;" parent="3" source="8" target="12" edge="1">
                    <mxGeometry relative="1" as="geometry"/>
                </mxCell>
                <mxCell id="31" style="edgeStyle=orthogonalEdgeStyle;html=1;exitX=0.5;exitY=1;exitDx=0;exitDy=0;entryX=0.5;entryY=0;entryDx=0;entryDy=0;endArrow=classic;endFill=1;fillColor=none;strokeColor=#000000;fontColor=#000000;" parent="3" source="8" target="11" edge="1">
                    <mxGeometry relative="1" as="geometry"/>
                </mxCell>
                <mxCell id="8" value="Registration" style="rounded=0;whiteSpace=wrap;html=1;rotation=-89;fillColor=none;strokeColor=#000000;fontColor=#000000;" parent="3" vertex="1">
                    <mxGeometry x="60" y="380" width="80" height="30" as="geometry"/>
                </mxCell>
                <mxCell id="54" style="edgeStyle=orthogonalEdgeStyle;html=1;exitX=0.5;exitY=1;exitDx=0;exitDy=0;entryX=0.5;entryY=0;entryDx=0;entryDy=0;endArrow=classic;endFill=1;fillColor=none;strokeColor=#000000;fontColor=#000000;" parent="3" source="9" target="53" edge="1">
                    <mxGeometry relative="1" as="geometry"/>
                </mxCell>
                <mxCell id="9" value="Password Recoverty" style="rounded=0;whiteSpace=wrap;html=1;rotation=-90;fillColor=none;strokeColor=#000000;fontColor=#000000;" parent="3" vertex="1">
                    <mxGeometry x="60" y="225" width="80" height="30" as="geometry"/>
                </mxCell>
                <mxCell id="10" value="login" style="rounded=0;whiteSpace=wrap;html=1;rotation=-90;fillColor=none;strokeColor=#000000;fontColor=#000000;" parent="3" vertex="1">
                    <mxGeometry x="60" y="60" width="80" height="30" as="geometry"/>
                </mxCell>
                <mxCell id="21" value="" style="endArrow=classic;html=1;entryX=0.575;entryY=0.035;entryDx=0;entryDy=0;entryPerimeter=0;fillColor=none;strokeColor=#000000;fontColor=#000000;" parent="3" target="8" edge="1">
                    <mxGeometry width="50" height="50" relative="1" as="geometry">
                        <mxPoint x="70" y="390" as="sourcePoint"/>
                        <mxPoint x="120" y="340" as="targetPoint"/>
                    </mxGeometry>
                </mxCell>
                <mxCell id="26" value="" style="endArrow=classic;html=1;entryX=0.575;entryY=0.035;entryDx=0;entryDy=0;entryPerimeter=0;fillColor=none;strokeColor=#000000;fontColor=#000000;" parent="3" edge="1">
                    <mxGeometry width="50" height="50" relative="1" as="geometry">
                        <mxPoint x="70" y="230.62" as="sourcePoint"/>
                        <mxPoint x="86.15683909119196" y="229.3774527592616" as="targetPoint"/>
                    </mxGeometry>
                </mxCell>
                <mxCell id="27" value="" style="endArrow=classic;html=1;entryX=0.575;entryY=0.035;entryDx=0;entryDy=0;entryPerimeter=0;fillColor=none;strokeColor=#000000;fontColor=#000000;" parent="3" edge="1">
                    <mxGeometry width="50" height="50" relative="1" as="geometry">
                        <mxPoint x="70" y="61.24000000000001" as="sourcePoint"/>
                        <mxPoint x="86.15683909119196" y="59.99745275926159" as="targetPoint"/>
                    </mxGeometry>
                </mxCell>
                <mxCell id="51" style="edgeStyle=orthogonalEdgeStyle;html=1;exitX=0.75;exitY=1;exitDx=0;exitDy=0;entryX=0;entryY=1;entryDx=0;entryDy=0;endArrow=classic;endFill=1;fillColor=none;strokeColor=#000000;fontColor=#000000;" parent="3" source="11" target="50" edge="1">
                    <mxGeometry relative="1" as="geometry"/>
                </mxCell>
                <mxCell id="11" value="Add Information" style="rounded=0;whiteSpace=wrap;html=1;rotation=-90;fillColor=none;strokeColor=#000000;fontColor=#000000;" parent="3" vertex="1">
                    <mxGeometry x="110" y="440" width="80" height="30" as="geometry"/>
                </mxCell>
                <mxCell id="52" style="edgeStyle=orthogonalEdgeStyle;html=1;exitX=0.5;exitY=1;exitDx=0;exitDy=0;entryX=0;entryY=0;entryDx=0;entryDy=0;endArrow=classic;endFill=1;fillColor=none;strokeColor=#000000;fontColor=#000000;" parent="3" source="12" target="50" edge="1">
                    <mxGeometry relative="1" as="geometry"/>
                </mxCell>
                <mxCell id="12" value="Set Password" style="rounded=0;whiteSpace=wrap;html=1;rotation=-90;fillColor=none;strokeColor=#000000;fontColor=#000000;" parent="3" vertex="1">
                    <mxGeometry x="110" y="330" width="80" height="30" as="geometry"/>
                </mxCell>
                <mxCell id="50" value="" style="ellipse;whiteSpace=wrap;html=1;aspect=fixed;fillColor=none;strokeColor=#000000;fontColor=#000000;" parent="3" vertex="1">
                    <mxGeometry x="190" y="390" width="20" height="20" as="geometry"/>
                </mxCell>
                <mxCell id="53" value="Enter Email" style="shape=parallelogram;perimeter=parallelogramPerimeter;whiteSpace=wrap;html=1;fixedSize=1;rotation=-90;fillColor=none;strokeColor=#000000;fontColor=#000000;" parent="3" vertex="1">
                    <mxGeometry x="95" y="230" width="100" height="20" as="geometry"/>
                </mxCell>
                <mxCell id="69" value="Enter Otp" style="shape=parallelogram;perimeter=parallelogramPerimeter;whiteSpace=wrap;html=1;fixedSize=1;rotation=-90;fillColor=none;strokeColor=#000000;fontColor=#000000;" parent="3" vertex="1">
                    <mxGeometry x="135" y="175" width="80" height="20" as="geometry"/>
                </mxCell>
                <mxCell id="70" value="Set New Pass" style="shape=parallelogram;perimeter=parallelogramPerimeter;whiteSpace=wrap;html=1;fixedSize=1;fillColor=none;strokeColor=#000000;fontColor=#000000;" parent="3" vertex="1">
                    <mxGeometry x="125" y="60" width="100" height="20" as="geometry"/>
                </mxCell>
                <mxCell id="78" value="No" style="text;html=1;align=center;verticalAlign=middle;resizable=0;points=[];autosize=1;strokeColor=#000000;fillColor=none;fontColor=#000000;" parent="3" vertex="1">
                    <mxGeometry x="195" y="90" width="40" height="30" as="geometry"/>
                </mxCell>
                <mxCell id="4" value="System" style="swimlane;startSize=20;fillColor=none;strokeColor=#000000;fontColor=#000000;" parent="2" vertex="1">
                    <mxGeometry x="260" width="160" height="510" as="geometry"/>
                </mxCell>
                <mxCell id="55" value="Send Otp" style="rounded=0;whiteSpace=wrap;html=1;rotation=-90;fillColor=none;strokeColor=#000000;fontColor=#000000;" parent="4" vertex="1">
                    <mxGeometry x="-5" y="220" width="70" height="30" as="geometry"/>
                </mxCell>
                <mxCell id="58" style="edgeStyle=orthogonalEdgeStyle;html=1;exitX=0;exitY=0.5;exitDx=0;exitDy=0;entryX=0;entryY=0.5;entryDx=0;entryDy=0;endArrow=classic;endFill=1;fillColor=none;strokeColor=#000000;fontColor=#000000;" parent="4" source="56" target="55" edge="1">
                    <mxGeometry relative="1" as="geometry"/>
                </mxCell>
                <mxCell id="56" value="Received?" style="rhombus;whiteSpace=wrap;html=1;rotation=-91;fillColor=none;strokeColor=#000000;fontColor=#000000;" parent="4" vertex="1">
                    <mxGeometry x="50" y="215" width="70" height="50" as="geometry"/>
                </mxCell>
                <mxCell id="63" value="Matched?" style="rhombus;whiteSpace=wrap;html=1;rotation=-93;fillColor=none;strokeColor=#000000;fontColor=#000000;" parent="4" vertex="1">
                    <mxGeometry x="-5.0000000000000036" y="129.48" width="70" height="30" as="geometry"/>
                </mxCell>
                <mxCell id="80" value="Yes" style="text;html=1;align=center;verticalAlign=middle;resizable=0;points=[];autosize=1;strokeColor=#000000;fillColor=none;fontColor=#000000;" parent="4" vertex="1">
                    <mxGeometry x="-20" y="45" width="40" height="30" as="geometry"/>
                </mxCell>
                <mxCell id="81" value="Yes" style="text;html=1;align=center;verticalAlign=middle;resizable=0;points=[];autosize=1;strokeColor=#000000;fillColor=none;fontColor=#000000;" parent="4" vertex="1">
                    <mxGeometry x="50" y="180" width="40" height="30" as="geometry"/>
                </mxCell>
                <mxCell id="95" style="edgeStyle=orthogonalEdgeStyle;html=1;exitX=1;exitY=0.5;exitDx=0;exitDy=0;endArrow=classic;endFill=1;fillColor=none;strokeColor=#000000;fontColor=#000000;" parent="4" source="64" target="67" edge="1">
                    <mxGeometry relative="1" as="geometry"/>
                </mxCell>
                <mxCell id="64" value="Valid?" style="rhombus;whiteSpace=wrap;html=1;fillColor=none;strokeColor=#000000;fontColor=#000000;" parent="4" vertex="1">
                    <mxGeometry x="50" y="35" width="50" height="50" as="geometry"/>
                </mxCell>
                <mxCell id="67" value="Dashboard" style="rounded=0;whiteSpace=wrap;html=1;rotation=-90;fillColor=none;strokeColor=#000000;fontColor=#000000;" parent="4" vertex="1">
                    <mxGeometry x="100" y="45" width="60" height="30" as="geometry"/>
                </mxCell>
                <mxCell id="97" value="" style="ellipse;whiteSpace=wrap;html=1;aspect=fixed;fillColor=none;strokeColor=#000000;fontColor=#000000;" parent="4" vertex="1">
                    <mxGeometry x="80" y="110" width="20" height="20" as="geometry"/>
                </mxCell>
                <mxCell id="101" value="Yes" style="text;html=1;align=center;verticalAlign=middle;resizable=0;points=[];autosize=1;strokeColor=#000000;fillColor=none;fontColor=#000000;" parent="4" vertex="1">
                    <mxGeometry x="80" y="30" width="40" height="30" as="geometry"/>
                </mxCell>
                <mxCell id="5" value="Database" style="swimlane;startSize=20;fillColor=none;strokeColor=#000000;fontColor=#000000;" parent="2" vertex="1">
                    <mxGeometry x="420" width="160" height="510" as="geometry"/>
                </mxCell>
                <mxCell id="111" style="edgeStyle=orthogonalEdgeStyle;html=1;exitX=1;exitY=0.5;exitDx=0;exitDy=0;entryX=0.5;entryY=1;entryDx=0;entryDy=0;endArrow=classic;endFill=1;fillColor=none;strokeColor=#000000;fontColor=#000000;" parent="5" source="106" target="110" edge="1">
                    <mxGeometry relative="1" as="geometry"/>
                </mxCell>
                <mxCell id="106" value="Store In Database" style="rounded=0;whiteSpace=wrap;html=1;rotation=-90;fillColor=none;strokeColor=#000000;fontColor=#000000;" parent="5" vertex="1">
                    <mxGeometry x="10" y="195" width="100" height="20" as="geometry"/>
                </mxCell>
                <mxCell id="114" style="edgeStyle=orthogonalEdgeStyle;html=1;exitX=0.5;exitY=0;exitDx=0;exitDy=0;entryX=0.5;entryY=0;entryDx=0;entryDy=0;endArrow=classic;endFill=1;fillColor=none;strokeColor=#000000;fontColor=#000000;" parent="5" source="110" target="113" edge="1">
                    <mxGeometry relative="1" as="geometry"/>
                </mxCell>
                <mxCell id="110" value="" style="ellipse;whiteSpace=wrap;html=1;aspect=fixed;fillColor=none;strokeColor=#000000;fontColor=#000000;" parent="5" vertex="1">
                    <mxGeometry x="50" y="80" width="20" height="20" as="geometry"/>
                </mxCell>
                <mxCell id="113" value="End" style="ellipse;whiteSpace=wrap;html=1;rotation=-90;fillColor=none;strokeColor=#000000;fontColor=#000000;" parent="5" vertex="1">
                    <mxGeometry x="55" y="40" width="50" height="20" as="geometry"/>
                </mxCell>
                <mxCell id="57" style="edgeStyle=orthogonalEdgeStyle;html=1;exitX=0.5;exitY=1;exitDx=0;exitDy=0;endArrow=classic;endFill=1;entryX=0.429;entryY=0;entryDx=0;entryDy=0;entryPerimeter=0;fillColor=none;strokeColor=#000000;fontColor=#000000;" parent="2" source="53" target="55" edge="1">
                    <mxGeometry relative="1" as="geometry">
                        <mxPoint x="270" y="240" as="targetPoint"/>
                    </mxGeometry>
                </mxCell>
                <mxCell id="71" style="edgeStyle=orthogonalEdgeStyle;html=1;exitX=1;exitY=0.5;exitDx=0;exitDy=0;endArrow=classic;endFill=1;fillColor=none;strokeColor=#000000;fontColor=#000000;" parent="2" source="56" target="69" edge="1">
                    <mxGeometry relative="1" as="geometry"/>
                </mxCell>
                <mxCell id="72" style="edgeStyle=orthogonalEdgeStyle;html=1;exitX=1;exitY=0.25;exitDx=0;exitDy=0;endArrow=classic;endFill=1;fillColor=none;strokeColor=#000000;fontColor=#000000;" parent="2" source="69" target="63" edge="1">
                    <mxGeometry relative="1" as="geometry"/>
                </mxCell>
                <mxCell id="76" style="edgeStyle=orthogonalEdgeStyle;html=1;exitX=1;exitY=0.5;exitDx=0;exitDy=0;entryX=1;entryY=0;entryDx=0;entryDy=0;endArrow=classic;endFill=1;fillColor=none;strokeColor=#000000;fontColor=#000000;" parent="2" source="63" target="70" edge="1">
                    <mxGeometry relative="1" as="geometry"/>
                </mxCell>
                <mxCell id="77" style="edgeStyle=orthogonalEdgeStyle;html=1;exitX=1;exitY=0.5;exitDx=0;exitDy=0;entryX=1;entryY=0;entryDx=0;entryDy=0;endArrow=classic;endFill=1;fillColor=none;strokeColor=#000000;fontColor=#000000;" parent="2" source="63" target="69" edge="1">
                    <mxGeometry relative="1" as="geometry"/>
                </mxCell>
                <mxCell id="90" style="edgeStyle=orthogonalEdgeStyle;html=1;exitX=1;exitY=1;exitDx=0;exitDy=0;entryX=0.5;entryY=0;entryDx=0;entryDy=0;endArrow=classic;endFill=1;fillColor=none;strokeColor=#000000;fontColor=#000000;" parent="2" source="10" target="64" edge="1">
                    <mxGeometry relative="1" as="geometry"/>
                </mxCell>
                <mxCell id="99" style="edgeStyle=orthogonalEdgeStyle;html=1;exitX=1;exitY=0.75;exitDx=0;exitDy=0;entryX=0;entryY=0.5;entryDx=0;entryDy=0;endArrow=classic;endFill=1;fillColor=none;strokeColor=#000000;fontColor=#000000;" parent="2" source="70" target="97" edge="1">
                    <mxGeometry relative="1" as="geometry"/>
                </mxCell>
                <mxCell id="109" style="edgeStyle=orthogonalEdgeStyle;html=1;exitX=1;exitY=0.5;exitDx=0;exitDy=0;entryX=0;entryY=0.25;entryDx=0;entryDy=0;endArrow=classic;endFill=1;fillColor=none;strokeColor=#000000;fontColor=#000000;" parent="2" source="50" target="106" edge="1">
                    <mxGeometry relative="1" as="geometry"/>
                </mxCell>
                <mxCell id="112" style="edgeStyle=orthogonalEdgeStyle;html=1;exitX=0.5;exitY=1;exitDx=0;exitDy=0;entryX=0;entryY=0.5;entryDx=0;entryDy=0;endArrow=classic;endFill=1;fillColor=none;strokeColor=#000000;fontColor=#000000;" parent="2" source="67" target="110" edge="1">
                    <mxGeometry relative="1" as="geometry"/>
                </mxCell>
                <mxCell id="118" style="edgeStyle=orthogonalEdgeStyle;html=1;exitX=1;exitY=0.5;exitDx=0;exitDy=0;entryX=0.25;entryY=0;entryDx=0;entryDy=0;fillColor=none;strokeColor=#000000;fontColor=#000000;" parent="2" source="97" target="106" edge="1">
                    <mxGeometry relative="1" as="geometry"/>
                </mxCell>
                <mxCell id="59" value="no" style="text;html=1;align=center;verticalAlign=middle;resizable=0;points=[];autosize=1;strokeColor=#000000;fillColor=none;fontColor=#000000;" parent="115" vertex="1">
                    <mxGeometry x="280" y="275" width="40" height="30" as="geometry"/>
                </mxCell>
                <mxCell id="91" style="edgeStyle=orthogonalEdgeStyle;html=1;exitX=0;exitY=0.5;exitDx=0;exitDy=0;endArrow=classic;endFill=1;fillColor=none;strokeColor=#000000;fontColor=#000000;" parent="115" source="64" edge="1">
                    <mxGeometry relative="1" as="geometry">
                        <mxPoint x="140" y="40.00000000000006" as="targetPoint"/>
                    </mxGeometry>
                </mxCell>
                <mxCell id="93" value="No" style="text;html=1;align=center;verticalAlign=middle;resizable=0;points=[];autosize=1;strokeColor=#000000;fillColor=none;fontColor=#000000;" parent="115" vertex="1">
                    <mxGeometry x="280" y="35" width="40" height="30" as="geometry"/>
                </mxCell>
                <mxCell id="116" value="Account Management" style="text;html=1;align=center;verticalAlign=middle;resizable=0;points=[];autosize=1;strokeColor=#000000;fillColor=none;fontColor=#000000;" parent="1" vertex="1">
                    <mxGeometry x="335" y="665" width="140" height="30" as="geometry"/>
                </mxCell>
            </root>
        </mxGraphModel>
    </diagram>
</mxfile>